<svg width="14" height="11" viewBox="0 0 14 11" fill="none" xmlns="http://www.w3.org/2000/svg">
<path d="M4.66279 0.672649C4.70551 0.621416 4.75844 0.579647 4.81821 0.550006C4.87797 0.520364 4.94325 0.503501 5.00989 0.500489C5.07654 0.497478 5.14308 0.508386 5.20527 0.532517C5.26746 0.556648 5.32394 0.593472 5.37111 0.640643C5.41828 0.687814 5.45511 0.744297 5.47924 0.806489C5.50337 0.868681 5.51428 0.935219 5.51127 1.00186C5.50826 1.0685 5.49139 1.13379 5.46175 1.19355C5.43211 1.25331 5.39034 1.30624 5.33911 1.34897L1.88853 4.8036H13.294C13.4171 4.81014 13.533 4.86365 13.6179 4.95311C13.7027 5.04257 13.75 5.16117 13.75 5.28447C13.75 5.40776 13.7027 5.52636 13.6179 5.61582C13.533 5.70529 13.4171 5.7588 13.294 5.76533H1.88853L5.34452 9.21591C5.4315 9.307 5.48004 9.42811 5.48004 9.55407C5.48004 9.68002 5.4315 9.80113 5.34452 9.89223C5.30016 9.93672 5.24746 9.97203 5.18943 9.99612C5.1314 10.0202 5.06919 10.0326 5.00636 10.0326C4.94353 10.0326 4.88132 10.0202 4.82329 9.99612C4.76526 9.97203 4.71256 9.93672 4.6682 9.89223L0.393862 5.61789C0.348369 5.5741 0.312179 5.52158 0.287459 5.46348C0.26274 5.40537 0.25 5.34288 0.25 5.27973C0.25 5.21659 0.26274 5.15409 0.287459 5.09599C0.312179 5.03788 0.348369 4.98536 0.393862 4.94157L4.66279 0.672649Z" fill="black"/>
</svg>
