<svg width="158" height="161" viewBox="0 0 158 161" fill="none" xmlns="http://www.w3.org/2000/svg">
<path d="M157.043 240.724C157.062 240.776 157.731 240.808 157.668 241.242L155.595 257.654L154.307 257.682L142.563 266.637L140.685 265.703L73.1533 185.828L71.9223 183.732C73.374 180.407 72.5067 175.736 73.3976 172.348C74.1057 169.649 81.7129 161.784 84.0612 159.253C89.8855 152.977 96.3193 147.244 101.953 140.785L23.6692 54.2001C23.1451 53.8419 22.2671 54.6356 21.8316 54.9C18.7028 56.7976 15.4903 59.8595 12.6449 62.2112L11.8703 61.9981C11.6122 61.4401 11.9885 60.7254 11.8648 60.1809C9.86754 51.2845 7.33573 42.4858 5.33868 33.5783C4.29293 28.912 3.23879 19.1545 1.71875 15.3528C1.52774 14.8711 0.839732 14.956 0.758495 14.4829C1.62547 9.55381 4.15729 4.79786 6.21627 0.262994L59.7876 19.1593C58.2164 21.8965 57.2567 24.9889 56.2405 27.986C55.3675 30.5667 55.7231 32.4359 53.1528 34.4666L141.111 130.035L133.678 147.573L108.333 175.185L106.61 175.699C106.746 175.027 107.059 174.501 107.43 173.94C113.416 164.904 125.68 155.737 132.329 146.698L138.431 133.134L102.904 171.103L102.282 171.705C102.115 171.495 101.106 171.561 101.248 171.129L139.221 129.734L45.6443 27.9002L45.5302 27.0728L57.5778 19.6035C49.7176 16.698 41.7188 14.1957 33.7554 11.604L7.93001 2.89772C7.34198 2.91242 7.97763 3.30622 7.98058 3.32984C9.78779 18.0608 14.0893 32.8095 16.6107 47.4347L17.4435 47.4724L27.9084 40.0021L29.2695 40.5991L111.363 131.85C111.604 132.903 107.939 136.532 107.037 137.524C102.182 142.843 96.6827 147.994 91.6119 153.157C86.8885 157.965 81.7155 162.448 77.7732 167.983C76.9986 168.771 74.6574 170.781 74.7036 171.705C74.7498 172.629 78.4957 177.284 79.4186 178.419L79.2898 178.784C78.9186 178.345 75.0096 174.152 74.7243 174.3L73.4998 183.833L141.39 264.75C142.204 262.111 142.134 259.115 142.491 256.333C142.568 255.743 142.297 254.645 142.368 254.422C142.412 254.298 143.522 253.432 143.377 252.725C143.463 252.695 143.792 253.041 144.207 252.758C147.578 250.475 152.652 245.332 156.034 242.409C156.056 242.39 156.317 242.588 156.527 242.173C156.706 241.825 156.623 241.325 156.549 240.949L157.043 240.712L157.043 240.724ZM12.6346 57.5412L15.9201 48.2304L6.27483 3.56028L2.47733 14.0236L12.6334 57.5446L12.6346 57.5412ZM16.655 50.0264C15.9081 50.8325 14.3812 56.9712 13.893 58.6105C13.7677 59.0295 13.3022 59.5281 13.935 59.6422L22.877 52.6514L26.9599 42.477C24.6956 44.1411 19.2209 46.6233 17.5974 48.6453C17.1201 49.2414 17.3744 49.8848 17.2177 50.0517C17.1639 50.1081 16.7352 49.9379 16.6562 50.0231L16.655 50.0264ZM28.5786 41.4061L24.159 52.471C24.2728 54.0666 29.8033 59.0349 31.2377 60.6069C55.2949 87.0157 79.069 113.694 103.217 140.014L110.057 132.195L28.582 41.4073L28.5786 41.4061ZM57.3003 21.562C53.5542 22.9179 50.487 25.6959 46.9895 27.5727L52.1431 33.2893C52.4066 32.9793 53.5953 32.0617 53.6284 31.9679L57.3003 21.562ZM156.244 244.137L144.186 254.141L142.796 264.847L154.468 255.938L156.244 244.137Z" fill="#100F0D"/>
<path d="M102.905 171.111C102.571 171.991 103.901 173.252 104.423 173.873C105.271 174.88 106.552 175.565 106.611 175.707C106.642 175.778 106.305 176.179 106.439 176.388L156.829 239.473C157.282 239.81 156.969 240.528 157.043 240.724L156.549 240.96C139.486 218.771 121.458 197.291 104.405 175.098C103.615 174.073 102.85 172.429 102.286 171.714L102.908 171.112L102.905 171.111Z" fill="#252626"/>
<path d="M7.98491 3.3389C9.64607 3.84221 11.2499 4.60401 12.9157 5.09395C19.8324 7.13542 26.9605 9.39836 33.7609 11.6097C41.721 14.2002 49.7231 16.7037 57.5833 19.6092L45.5357 27.0785L45.6498 27.9059L139.227 129.739L101.253 171.135C101.112 171.567 102.117 171.5 102.287 171.71C102.852 172.422 103.621 174.068 104.406 175.094C121.463 197.289 139.491 218.768 156.55 240.957C156.623 241.336 156.707 241.833 156.528 242.181L156.035 242.417C152.655 245.337 147.578 250.483 144.208 252.766C143.788 253.051 143.459 252.705 143.378 252.733C142.905 252.901 142.756 253.259 142.623 253.698L108.719 213.073C99.0457 201.484 88.913 190.078 79.4196 178.427C78.4933 177.291 74.7493 172.599 74.7046 171.713C74.6599 170.827 76.9995 168.779 77.7742 167.99C82.4933 163.174 87.4236 158.462 91.6129 153.165C96.6837 148.002 102.183 142.851 107.038 137.532C107.939 136.543 111.605 132.911 111.364 131.858L29.2705 40.607L27.9094 40.01L17.4445 47.4803L16.6117 47.4426C14.0903 32.8174 9.78997 18.0653 7.98156 3.33772L7.98491 3.3389Z" fill="#00FF3A"/>
<path d="M28.5786 41.4061L110.053 132.194L103.214 140.013C79.0656 113.693 55.2915 87.0146 31.2344 60.6057C29.8011 59.0304 24.2695 54.0654 24.1557 52.4698L28.5753 41.405L28.5786 41.4061Z" fill="#3C894D"/>
<path d="M142.368 254.433C142.297 254.657 142.567 255.754 142.491 256.344C142.133 259.126 142.204 262.122 141.389 264.761L73.4996 183.844L74.7241 174.311C75.0061 174.162 78.915 178.355 79.2896 178.796C99.957 203.206 119.562 229.2 140.895 253.172C141.334 253.665 141.758 254.146 142.363 254.435L142.368 254.433Z" fill="#3C894D"/>
<path d="M12.6346 57.5412L2.47398 14.0224L6.27268 3.55574L15.9201 48.2304L12.6346 57.5412Z" fill="#3C894D"/>
<path d="M102.905 171.111L138.432 133.142L132.33 146.706C125.681 155.745 113.419 164.908 107.431 173.947C107.06 174.509 106.747 175.035 106.611 175.707C106.551 175.569 105.27 174.883 104.423 173.873C103.901 173.252 102.571 171.991 102.905 171.111Z" fill="#3C894D"/>
<path d="M156.244 244.137L154.468 255.938L142.794 264.85L144.186 254.141L156.244 244.137Z" fill="#3C894D"/>
<path d="M79.4196 178.427C88.9118 190.081 99.0457 201.484 108.719 213.073L142.623 253.698C142.756 253.259 142.905 252.901 143.378 252.733C143.523 253.44 142.41 254.305 142.369 254.43C141.761 254.14 141.338 253.655 140.901 253.166C119.567 229.195 99.9627 203.201 79.2953 178.79L79.4241 178.425L79.4196 178.427Z" fill="#1A1A12"/>
<path d="M16.655 50.0264C16.734 49.9413 17.1673 50.1092 17.2165 50.0551C17.3744 49.8848 17.1201 49.2414 17.5962 48.6487C19.2197 46.6266 24.6944 44.1444 26.9587 42.4803L22.8759 52.6547L13.9338 59.6455C13.301 59.5314 13.7665 59.0328 13.8918 58.6138C14.38 56.9745 15.9057 50.8392 16.6539 50.0298L16.655 50.0264Z" fill="#3C894D"/>
<path d="M57.3003 21.562L53.6284 31.9679C53.5953 32.0617 52.4045 32.9748 52.1431 33.2893L46.9895 27.5727C50.487 25.6959 53.5542 22.9179 57.3003 21.562Z" fill="#3C894D"/>
<path d="M91.6129 153.165C87.4236 158.462 82.4921 163.177 77.7742 167.99C81.7165 162.455 86.894 157.97 91.6129 153.165Z" fill="#D7DDDF"/>
<path d="M33.7597 11.6131C26.9594 9.40172 19.8313 7.13876 12.9146 5.09728C11.2499 4.60401 9.64606 3.84222 7.98372 3.34225C7.9796 3.32196 7.34393 2.92819 7.93314 2.91014L33.7585 11.6164L33.7597 11.6131Z" fill="#7EAF5E"/>
<path d="M156.527 242.184C156.317 242.599 156.056 242.402 156.034 242.42L156.527 242.184Z" fill="#252626"/>
</svg>
