<svg width="43" height="43" viewBox="0 0 43 43" fill="none" xmlns="http://www.w3.org/2000/svg">
<rect width="42.8383" height="42.8383" fill="black"/>
<g clip-path="url(#clip0_363_724)" filter="url(#filter0_dd_363_724)">
<path d="M21.0007 33.5413C27.9272 33.5413 33.5423 27.9262 33.5423 20.9997C33.5423 14.0731 27.9272 8.45801 21.0007 8.45801C14.0741 8.45801 8.45898 14.0731 8.45898 20.9997C8.45898 27.9262 14.0741 33.5413 21.0007 33.5413Z" stroke="white" stroke-width="1.5" stroke-linecap="round" stroke-linejoin="round"/>
<path d="M11.1133 28.7162C13.7494 23.2568 12.1796 16.1914 16.4315 15.0796C20.6834 13.9678 23.4642 15.8642 25.689 16.5187C27.9139 17.1732 29.7595 17.5197 30.1702 19.5928C30.7588 22.5708 21.076 27.8307 23.1375 33.5415" stroke="white" stroke-width="1.5" stroke-linecap="round" stroke-linejoin="round"/>
<path d="M21.2068 22.734C23.0711 24.2058 24.9961 23.7169 29.2544 21.9331M24.4116 16.0636C24.4116 14.7377 21.9919 13.6731 20.4922 14.8509" stroke="white" stroke-linecap="round" stroke-linejoin="round"/>
<path d="M19.2773 20.0839C20.343 20.0839 21.207 19.22 21.207 18.1543C21.207 17.0886 20.343 16.2246 19.2773 16.2246C18.2116 16.2246 17.3477 17.0886 17.3477 18.1543C17.3477 19.22 18.2116 20.0839 19.2773 20.0839Z" stroke="white" stroke-linecap="round" stroke-linejoin="round"/>
<path d="M19.2779 18.9073C19.6935 18.9073 20.0304 18.5704 20.0304 18.1548C20.0304 17.7392 19.6935 17.4023 19.2779 17.4023C18.8623 17.4023 18.5254 17.7392 18.5254 18.1548C18.5254 18.5704 18.8623 18.9073 19.2779 18.9073Z" stroke="white" stroke-width="0.5" stroke-linecap="round" stroke-linejoin="round"/>
<path d="M27.3232 20.8632C27.5729 20.8632 27.7753 20.6607 27.7753 20.4111C27.7753 20.1614 27.5729 19.959 27.3232 19.959C27.0735 19.959 26.8711 20.1614 26.8711 20.4111C26.8711 20.6607 27.0735 20.8632 27.3232 20.8632Z" fill="white"/>
<path d="M31.7197 20.411C31.5743 17.7742 30.4622 15.2835 28.5959 13.415C26.7296 11.5466 24.2402 10.4316 21.6035 10.2832" stroke="white" stroke-linecap="round" stroke-linejoin="round"/>
</g>
<defs>
<filter id="filter0_dd_363_724" x="3" y="7" width="36" height="36" filterUnits="userSpaceOnUse" color-interpolation-filters="sRGB">
<feFlood flood-opacity="0" result="BackgroundImageFix"/>
<feColorMatrix in="SourceAlpha" type="matrix" values="0 0 0 0 0 0 0 0 0 0 0 0 0 0 0 0 0 0 127 0" result="hardAlpha"/>
<feOffset dy="4"/>
<feGaussianBlur stdDeviation="2"/>
<feComposite in2="hardAlpha" operator="out"/>
<feColorMatrix type="matrix" values="0 0 0 0 0 0 0 0 0 0 0 0 0 0 0 0 0 0 0.25 0"/>
<feBlend mode="normal" in2="BackgroundImageFix" result="effect1_dropShadow_363_724"/>
<feColorMatrix in="SourceAlpha" type="matrix" values="0 0 0 0 0 0 0 0 0 0 0 0 0 0 0 0 0 0 127 0" result="hardAlpha"/>
<feOffset dy="4"/>
<feGaussianBlur stdDeviation="2"/>
<feComposite in2="hardAlpha" operator="out"/>
<feColorMatrix type="matrix" values="0 0 0 0 0 0 0 0 0 0 0 0 0 0 0 0 0 0 0.25 0"/>
<feBlend mode="normal" in2="effect1_dropShadow_363_724" result="effect2_dropShadow_363_724"/>
<feBlend mode="normal" in="SourceGraphic" in2="effect2_dropShadow_363_724" result="shape"/>
</filter>
<clipPath id="clip0_363_724">
<rect width="28" height="28" fill="white" transform="translate(7 7)"/>
</clipPath>
</defs>
</svg>
