<svg width="121" height="265" viewBox="0 0 121 265" fill="none" xmlns="http://www.w3.org/2000/svg">
<path d="M-122.628 231.253C-122.665 231.307 -123.437 231.153 -123.49 231.666L-125.823 250.983L-124.361 251.383L-113.525 264.961L-111.116 264.433L-11.2088 192.636L-9.20463 190.598C-9.90899 186.389 -7.58249 181.308 -7.62915 177.188C-7.66433 173.906 -14.0919 162.756 -16.0466 159.196C-20.895 150.37 -26.5941 141.987 -31.1723 133.005L82.9218 56.6319C83.6223 56.3733 84.3967 57.53 84.8178 57.9563C87.8442 61.0168 90.6329 65.4296 93.2059 68.927L94.1506 68.9056C94.6047 68.3428 94.38 67.4198 94.677 66.8339C99.502 57.2561 104.909 47.9427 109.737 38.3521C112.266 33.3278 116.261 22.4977 119.084 18.5955C119.439 18.1007 120.2 18.3945 120.428 17.878C120.85 12.0064 119.323 5.85582 118.272 0.0928189L51.7455 6.31696C52.7546 9.8895 52.9643 13.6922 53.2658 17.4024C53.5231 20.5964 52.5823 22.6271 54.9335 25.6796L-72.7697 109.533L-69.3093 131.669L-48.2979 170.425L-46.4792 171.505C-46.4415 170.7 -46.6486 170.01 -46.9113 169.263C-51.1543 157.241 -62.5209 143.272 -67.5193 131.057L-70.5988 113.836L-40.9351 167.322L-40.3975 168.187C-40.1473 167.995 -39.0157 168.359 -39.0531 167.826L-70.5268 109.73L65.3791 20.3374L65.7462 19.4261L54.1395 7.4563C63.9385 6.39141 73.7802 5.82605 83.6072 5.14876L115.562 2.60815C116.229 2.79323 115.391 3.06056 115.381 3.08668C109.103 19.3754 99.9737 34.9703 92.911 50.9339L91.9501 50.7386L82.1493 39.2205L80.4256 39.5121L-39.3502 120.118C-39.927 121.251 -36.7849 126.44 -36.0389 127.831C-32.0225 135.288 -27.2233 142.739 -22.9161 150.081C-18.9034 156.917 -14.285 163.512 -11.3716 170.955C-10.7136 172.077 -8.61793 175.04 -8.93514 176.081C-9.25235 177.122 -14.8582 181.36 -16.2362 182.391L-16.1937 182.845C-15.6443 182.449 -9.98464 178.785 -9.70146 179.035L-11.0333 190.262L-111.647 263.144C-111.821 259.901 -110.883 256.502 -110.494 253.227C-110.413 252.531 -109.79 251.357 -109.807 251.081C-109.822 250.927 -110.84 249.622 -110.472 248.857C-110.561 248.798 -111.036 249.099 -111.429 248.657C-114.621 245.088 -118.938 237.768 -121.96 233.465C-121.979 233.437 -122.334 233.588 -122.455 233.054C-122.56 232.606 -122.322 232.06 -122.13 231.651L-122.625 231.24L-122.628 231.253ZM94.5544 63.6021L93.4711 52.0394L117.261 3.8378L118.599 16.862L94.5548 63.6063L94.5544 63.6021ZM92.1186 53.878C92.74 55.0114 92.7249 62.4519 92.8127 64.4618C92.8357 64.9757 93.224 65.6778 92.4694 65.6268L84.2688 55.0917L82.5231 42.3156C84.63 44.8622 90.1654 49.261 91.4388 52.0326C91.8127 52.8493 91.3385 53.5105 91.4694 53.7458C91.5146 53.8255 92.0525 53.7541 92.1182 53.8738L92.1186 53.878ZM80.9828 40.6305L82.8579 54.519C82.2713 56.3068 74.5398 60.3919 72.4533 61.7748C37.4484 85.0176 2.68934 108.649 -32.3945 131.765L-37.9588 120.886L80.9787 40.6309L80.9828 40.6305ZM53.8954 9.77001C57.7811 12.3892 60.4853 16.4365 63.9382 19.5787L56.4224 24.6254C56.2105 24.1963 55.117 22.8093 55.1061 22.6928L53.8954 9.77001ZM-122.694 235.376L-111.8 250.24L-113.279 262.853L-124.045 249.348L-122.694 235.376Z" fill="#100F0D"/>
<path d="M-40.9385 167.331C-40.8103 168.431 -42.6885 169.488 -43.4614 170.047C-44.717 170.953 -46.3747 171.369 -46.4826 171.513C-46.5387 171.586 -46.269 172.139 -46.4806 172.34L-122.027 229.888C-122.64 230.143 -122.487 231.051 -122.628 231.253L-122.133 231.664C-96.3148 211.233 -69.5994 191.889 -43.7908 171.45C-42.5972 170.507 -41.2528 168.85 -40.4051 168.196L-40.9426 167.331L-40.9385 167.331Z" fill="#252626"/>
<path d="M115.373 3.09574C113.334 3.19448 111.287 3.60455 109.246 3.68665C100.77 4.03591 91.9905 4.5773 83.5993 5.15365C73.7765 5.83055 63.9306 6.39634 54.1316 7.46123L65.7383 19.431L65.3712 20.3423L-70.5347 109.735L-39.061 167.831C-39.0236 168.364 -40.1511 168 -40.4054 168.192C-41.2536 168.842 -42.6022 170.499 -43.7912 171.446C-69.604 191.885 -96.3194 211.229 -122.133 231.66C-122.325 232.072 -122.563 232.615 -122.458 233.063L-121.963 233.474C-118.942 237.772 -114.624 245.096 -111.433 248.666C-111.035 249.111 -110.56 248.811 -110.476 248.866C-109.984 249.193 -109.917 249.644 -109.891 250.183L-59.5824 213.54C-45.2296 203.086 -30.405 192.975 -16.2396 182.4C-14.8575 181.369 -9.24301 177.087 -8.93852 176.09C-8.63404 175.092 -10.717 172.086 -11.375 170.964C-15.3802 164.118 -19.6563 157.332 -22.9195 150.089C-27.2267 142.747 -32.0259 135.296 -36.0423 127.839C-36.7879 126.453 -39.9304 121.26 -39.3536 120.127L80.4222 39.5208L82.146 39.2293L91.9467 50.7473L92.9076 50.9426C99.9703 34.979 109.099 19.3799 115.378 3.09535L115.373 3.09574Z" fill="#00FF3A"/>
<path d="M80.9828 40.6305L-37.9546 120.886L-32.3903 131.764C2.69348 108.648 37.4526 85.0172 72.4575 61.7744C74.5435 60.3874 82.2755 56.3064 82.862 54.5186L80.987 40.6301L80.9828 40.6305Z" fill="#3C894D"/>
<path d="M-109.81 251.094C-109.793 251.369 -110.416 252.544 -110.497 253.24C-110.886 256.515 -111.824 259.914 -111.65 263.157L-11.0362 190.275L-9.70442 179.048C-9.98346 178.797 -15.6431 182.462 -16.1967 182.858C-46.7624 204.791 -76.5689 228.835 -107.769 250.076C-108.411 250.514 -109.033 250.942 -109.806 251.098L-109.81 251.094Z" fill="#3C894D"/>
<path d="M94.5544 63.6021L118.603 16.8616L117.265 3.83323L93.4711 52.0394L94.5544 63.6021Z" fill="#3C894D"/>
<path d="M-40.9385 167.331L-70.6022 113.845L-67.5227 131.065C-62.5243 143.281 -51.158 157.245 -46.9147 169.271C-46.652 170.019 -46.4449 170.708 -46.4826 171.513C-46.3743 171.373 -44.7166 170.958 -43.4614 170.047C-42.6885 169.488 -40.8103 168.431 -40.9385 167.331Z" fill="#3C894D"/>
<path d="M-122.694 235.376L-124.045 249.348L-113.279 262.857L-111.8 250.24L-122.694 235.376Z" fill="#3C894D"/>
<path d="M-16.2396 182.4C-30.4046 192.979 -45.2296 203.086 -59.5824 213.54L-109.891 250.183C-109.917 249.644 -109.984 249.193 -110.476 248.866C-110.844 249.63 -109.821 250.936 -109.811 251.09C-109.034 250.933 -108.412 250.502 -107.774 250.068C-76.5739 228.827 -46.7673 204.783 -16.2016 182.85L-16.2441 182.396L-16.2396 182.4Z" fill="#1A1A12"/>
<path d="M92.1186 53.878C92.0529 53.7583 91.5104 53.8259 91.4698 53.7499C91.3385 53.5105 91.8127 52.8493 91.4392 52.0368C90.1658 49.2652 84.6304 44.8664 82.5235 42.3197L84.2692 55.0959L92.4698 65.6309C93.2244 65.6819 92.8361 64.9798 92.8131 64.4659C92.7253 62.456 92.7408 55.0197 92.1189 53.8821L92.1186 53.878Z" fill="#3C894D"/>
<path d="M53.8954 9.77001L55.1061 22.6928C55.117 22.8093 56.2142 24.1918 56.4224 24.6254L63.9382 19.5787C60.4853 16.4365 57.7811 12.3892 53.8954 9.77001Z" fill="#3C894D"/>
<path d="M-22.9195 150.089C-19.6563 157.332 -15.3798 164.123 -11.375 170.964C-14.2883 163.521 -18.9114 156.922 -22.9195 150.089Z" fill="#D7DDDF"/>
<path d="M83.5997 5.15783C91.9909 4.58147 100.771 4.04006 109.246 3.6908C111.287 3.60453 113.334 3.1945 115.374 3.09992C115.384 3.07796 116.222 2.81067 115.555 2.62141L83.6001 5.16199L83.5997 5.15783Z" fill="#7EAF5E"/>
<path d="M-122.458 233.067C-122.337 233.601 -121.982 233.45 -121.963 233.478L-122.458 233.067Z" fill="#252626"/>
</svg>
