<svg width="43" height="43" viewBox="0 0 43 43" fill="none" xmlns="http://www.w3.org/2000/svg">
<rect width="42.8383" height="42.8383" fill="black"/>
<path fill-rule="evenodd" clip-rule="evenodd" d="M31.0997 9.17787C31.4439 9.02038 31.8208 8.96606 32.1909 9.02057C32.561 9.07508 32.9109 9.23643 33.2042 9.48782C33.4975 9.73922 33.7235 10.0715 33.8586 10.45C33.9936 10.8285 34.0329 11.2395 33.9723 11.6401L30.8127 32.4719C30.5062 34.4813 28.4778 35.6337 26.7824 34.6328C25.3642 33.7954 23.2578 32.5052 21.3632 31.159C20.4158 30.4852 17.514 28.3274 17.8706 26.7919C18.1771 25.479 23.053 20.5455 25.8393 17.6124C26.9329 16.46 26.4341 15.7952 25.1427 16.8552C21.9357 19.487 16.7868 23.4893 15.0844 24.6159C13.5826 25.6092 12.7997 25.7788 11.8635 25.6092C10.1555 25.3003 8.57154 24.8218 7.27873 24.2388C5.53176 23.4514 5.61674 20.8408 7.27733 20.0806L31.0997 9.17787Z" fill="white"/>
</svg>
