<svg width="97" height="86" viewBox="0 0 97 86" fill="none" xmlns="http://www.w3.org/2000/svg">
<mask id="mask0_8_25" style="mask-type:alpha" maskUnits="userSpaceOnUse" x="0" y="0" width="97" height="87">
<rect width="97" height="87" fill="#D9D9D9"/>
</mask>
<g mask="url(#mask0_8_25)">
<path d="M117.656 -95.1617C117.67 -95.2009 118.174 -95.2255 118.127 -95.5519L116.566 -107.908L115.597 -107.929L106.755 -114.67L105.341 -113.967L54.501 -53.8339L53.5743 -52.2565C54.6672 -49.753 54.0143 -46.2364 54.685 -43.6859C55.218 -41.6539 60.945 -35.733 62.7128 -33.8277C67.0976 -29.1031 71.9412 -24.7872 76.1824 -19.924L17.2476 45.26C16.853 45.53 16.1921 44.932 15.8642 44.733C13.5088 43.304 11.0902 40.999 8.94816 39.229L8.365 39.389C8.17072 39.809 8.45398 40.347 8.36086 40.757C6.85726 47.455 4.95122 54.079 3.44777 60.785C2.6605 64.298 1.8669 71.643 0.722558 74.505C0.578758 74.868 0.060801 74.804 -0.000358582 75.16C0.652333 78.871 2.55838 82.452 4.10845 85.866L44.4389 71.64C43.256 69.579 42.5335 67.251 41.7685 64.995C41.1112 63.052 41.379 61.645 39.4439 60.116L105.662 -11.8316L100.066 -25.0346L80.9858 -45.8216L79.6885 -46.2088C79.7905 -45.7032 80.0265 -45.3073 80.306 -44.8842C84.8125 -38.0818 94.0447 -31.1805 99.0503 -24.3756L103.644 -14.1647L76.8981 -42.7489L76.4298 -43.2017C76.3042 -43.044 75.545 -43.0937 75.6514 -42.7683L104.239 -11.6045L33.7913 65.059L33.7053 65.682L42.7752 71.305C36.8578 73.493 30.836 75.377 24.8409 77.328L5.39862 83.882C4.95593 83.871 5.43447 83.575 5.43668 83.557C6.79722 72.467 10.0356 61.363 11.9338 50.353L12.5607 50.325L20.4391 55.949L21.4637 55.499L83.2665 -13.1976C83.4482 -13.9904 80.6893 -16.7226 80.0096 -17.4695C76.3547 -21.4734 72.2148 -25.3515 68.3973 -29.2385C64.8414 -32.8577 60.947 -36.2327 57.9791 -40.3996C57.3959 -40.9934 55.6333 -42.5065 55.6681 -43.2021C55.7029 -43.8977 58.5229 -47.4021 59.2178 -48.2569L59.1208 -48.5317C58.8413 -48.2006 55.8985 -45.0441 55.6837 -45.1555L54.7619 -52.3325L105.872 -113.25C106.485 -111.263 106.432 -109.007 106.701 -106.913C106.759 -106.469 106.555 -105.642 106.608 -105.474C106.641 -105.381 107.477 -104.729 107.368 -104.197C107.432 -104.174 107.68 -104.435 107.993 -104.222C110.53 -102.503 114.351 -98.6313 116.897 -96.4306C116.913 -96.4165 117.11 -96.5653 117.268 -96.2526C117.403 -95.9911 117.34 -95.6146 117.285 -95.3313L117.656 -95.1533V-95.1617ZM8.94037 42.745L11.4138 49.754L4.15254 83.383L1.29364 75.506L8.93948 42.742L8.94037 42.745ZM11.9671 48.402C11.4048 47.795 10.2553 43.174 9.88774 41.94C9.7934 41.624 9.44297 41.249 9.91939 41.163L16.6513 46.426L19.725 54.085C18.0203 52.833 13.8988 50.964 12.6766 49.442C12.3172 48.993 12.5087 48.509 12.3907 48.383C12.3503 48.34 12.0274 48.469 11.968 48.404L11.9671 48.402ZM20.9436 54.892L17.6164 46.562C17.702 45.36 21.8656 41.62 22.9455 40.437C41.0565 20.555 58.9545 0.470877 77.1343 -19.3441L82.2831 -13.4573L20.9462 54.891L20.9436 54.892ZM42.5663 69.831C39.7461 68.81 37.437 66.719 34.804 65.306L38.6838 61.002C38.8822 61.236 39.777 61.926 39.802 61.997L42.5663 69.831ZM117.055 -97.7312L107.977 -105.262L106.93 -113.323L115.717 -106.616L117.055 -97.7312Z" fill="#100F0D"/>
<path d="M5.43994 83.55C6.69052 83.171 7.89791 82.598 9.15205 82.229C14.3592 80.692 19.7255 78.988 24.845 77.323C30.8377 75.373 36.8619 73.488 42.7794 71.301L33.7095 65.678L33.7954 65.055L104.243 -11.6088L75.6555 -42.7726C75.5492 -43.098 76.3059 -43.0474 76.4339 -43.206C76.8592 -43.7417 77.4382 -44.9809 78.0289 -45.7536C90.8702 -62.4628 104.442 -78.6331 117.285 -95.3372C117.34 -95.6231 117.403 -95.997 117.269 -96.2585L116.897 -96.4365C114.352 -98.6347 110.531 -102.509 107.994 -104.228C107.677 -104.442 107.43 -104.182 107.368 -104.203C107.012 -104.33 106.9 -104.599 106.801 -104.93L81.2758 -74.3455C73.9937 -65.6204 66.3655 -57.0339 59.2185 -48.2628C58.5212 -47.4071 55.7025 -43.8748 55.6689 -43.208C55.6353 -42.5412 57.3966 -40.9993 57.9798 -40.4056C61.5325 -36.7795 65.2442 -33.2323 68.3981 -29.2445C72.2155 -25.3575 76.3554 -21.4794 80.0103 -17.4755C80.6891 -16.7311 83.4489 -13.9963 83.2672 -13.2035L21.4645 55.493L20.4398 55.943L12.5614 50.319L11.9345 50.347C10.0363 61.358 6.79886 72.463 5.43743 83.551L5.43994 83.55Z" fill="#00FF3A"/>
<path d="M20.9436 54.892L82.2806 -13.4565L77.1318 -19.3433C58.952 0.471807 41.054 20.556 22.943 40.437C21.8639 41.623 17.6995 45.361 17.6139 46.562L20.9411 54.892H20.9436Z" fill="#3C894D"/>
<path d="M8.94037 42.745L1.29112 75.507L4.15092 83.387L11.4138 49.754L8.94037 42.745Z" fill="#3C894D"/>
<path d="M11.9671 48.402C12.0266 48.466 12.3528 48.34 12.3898 48.38C12.5087 48.509 12.3172 48.993 12.6757 49.439C13.8979 50.961 18.0195 52.83 19.7241 54.083L16.6504 46.423L9.9185 41.16C9.44209 41.246 9.79252 41.622 9.88686 41.937C10.2544 43.171 11.403 47.79 11.9662 48.399L11.9671 48.402Z" fill="#3C894D"/>
<path d="M42.5663 69.831L39.802 61.997C39.777 61.926 38.8806 61.239 38.6838 61.002L34.804 65.306C37.437 66.719 39.7461 68.81 42.5663 69.831Z" fill="#3C894D"/>
<path d="M24.8441 77.321C19.7246 78.986 14.3583 80.689 9.15116 82.226C7.89792 82.598 6.69052 83.171 5.43905 83.547C5.43595 83.563 4.9574 83.859 5.40098 83.873L24.8432 77.318L24.8441 77.321Z" fill="#7EAF5E"/>
</g>
</svg>
