<svg width="43" height="43" viewBox="0 0 43 43" fill="none" xmlns="http://www.w3.org/2000/svg">
<rect width="42.8383" height="42.8383" fill="black"/>
<g clip-path="url(#clip0_362_5680)">
<path fill-rule="evenodd" clip-rule="evenodd" d="M24.2656 16.399C25.2488 15.9109 26.4999 15.1924 27.7525 14.208C28.0166 14.754 28.0456 15.2305 27.9095 15.6153C27.8131 15.8864 27.6313 16.1222 27.3924 16.3099C27.1337 16.5126 26.8105 16.6603 26.4533 16.7401C25.7755 16.8921 24.9842 16.8033 24.2656 16.399ZM24.436 21.4002L25.7376 22.1487C23.08 23.6316 22.3576 26.3851 21.4993 29.067C20.6412 26.3851 19.9187 23.6316 17.2612 22.1487L18.5628 21.4002C18.6887 21.3528 18.7963 21.267 18.8702 21.155C18.9441 21.043 18.9805 20.9106 18.9742 20.7767C18.855 18.2651 19.5362 17.1543 20.455 16.457C20.7846 16.2071 21.1444 16.0817 21.4993 16.0817C21.8543 16.0817 22.2141 16.2071 22.5438 16.457C23.4626 17.1543 24.1438 18.2651 24.0246 20.7767C24.0183 20.9106 24.0547 21.043 24.1286 21.155C24.2025 21.267 24.3101 21.3528 24.436 21.4002ZM21.4993 5C23.0038 5.04021 24.5121 5.33099 25.8211 5.89664C26.7275 6.28885 27.5733 6.80693 28.3391 7.42645C28.685 7.70613 28.9698 7.97632 29.2835 8.28736C30.1296 8.31648 31.3661 7.38069 31.9402 6.50507C30.9522 9.7296 26.4439 13.5375 23.3227 14.9946C23.3214 14.994 23.3206 14.9933 23.3196 14.9926C22.7594 14.5668 22.1295 14.3539 21.4993 14.3539C20.8692 14.3539 20.2393 14.5668 19.6792 14.9926C19.6782 14.9932 19.6774 14.9941 19.6761 14.9946C16.5548 13.5375 12.0466 9.7296 11.0586 6.50507C11.6326 7.38069 12.8691 8.31648 13.7152 8.28736C14.029 7.97643 14.3138 7.70613 14.6596 7.42645C15.4254 6.80693 16.2712 6.28885 17.1776 5.89664C18.4867 5.33099 19.995 5.04021 21.4993 5ZM18.7331 16.399C17.75 15.9109 16.4988 15.1924 15.2463 14.208C14.9822 14.754 14.9532 15.2305 15.0892 15.6153C15.1857 15.8864 15.3675 16.1222 15.6063 16.3099C15.8651 16.5126 16.1883 16.6603 16.5455 16.7401C17.2233 16.8921 18.0145 16.8033 18.7331 16.399Z" fill="white"/>
<path fill-rule="evenodd" clip-rule="evenodd" d="M29.125 13.0013C29.8146 12.3085 30.4222 11.5417 30.9108 10.8574L31.1589 11.3224C31.9578 12.9135 32.3729 14.4983 32.3729 16.2817L32.3711 19.1118L32.3861 20.5789C32.444 24.1806 33.2268 27.8247 35 31.1595L31.29 28.1812L28.6649 32.4221L25.907 29.8375L21.5 36.9574L17.093 29.8376L14.3353 32.4222L11.7101 28.1813L8 31.1596C9.77321 27.8248 10.556 24.1807 10.614 20.579L10.629 19.1119L10.6273 16.2818C10.6273 14.4983 11.0422 12.9135 11.8413 11.3225L12.0893 10.8575C12.5779 11.5418 13.1854 12.3085 13.8751 13.0014L13.6597 13.4468C13.2413 14.3117 13.1028 15.2789 13.4287 16.1986C13.6388 16.7911 14.0223 17.2991 14.5166 17.687C14.9966 18.0636 15.5647 18.3175 16.1595 18.4508C16.5469 18.5376 16.9416 18.5734 17.3337 18.5612C17.2422 19.0776 17.2023 19.6132 17.1997 20.1589L13.7 22.1712L16.4006 23.6783C16.6165 23.7988 16.822 23.9368 17.015 24.091C19.2415 26.0812 20.5802 31.9689 21.5001 34.8447C22.4201 31.9689 23.7587 26.0812 25.9853 24.091C26.1783 23.9368 26.3838 23.7988 26.5997 23.6783L29.3003 22.1712L25.8005 20.1589C25.7979 19.6132 25.758 19.0776 25.6665 18.5612C26.0586 18.5734 26.4533 18.5376 26.8408 18.4508C27.4355 18.3175 28.0037 18.0636 28.4836 17.687C28.9778 17.2991 29.3614 16.7911 29.5714 16.1986C29.8974 15.2789 29.7588 14.3118 29.3405 13.4468L29.1251 13.0014L29.125 13.0013Z" fill="white"/>
</g>
<defs>
<clipPath id="clip0_362_5680">
<rect width="27" height="32" fill="white" transform="translate(8 5)"/>
</clipPath>
</defs>
</svg>
