<svg width="43" height="43" viewBox="0 0 43 43" fill="none" xmlns="http://www.w3.org/2000/svg">
<rect width="42.8383" height="42.8383" fill="black"/>
<path fill-rule="evenodd" clip-rule="evenodd" d="M17.4018 6.80745C15.4858 7.79938 13.9182 8.63876 13.9185 8.6729C13.9194 8.76101 18.517 11.0751 18.6802 11.0694C18.7545 11.067 19.293 10.8206 19.8768 10.522L20.9386 9.97931L22.0982 10.5717L23.2577 11.1641L25.1566 10.3161C28.0179 9.03833 28.3151 8.89831 28.2685 8.85126C28.2067 8.78885 27.1804 8.24091 24.396 6.78407C23.0503 6.07997 21.7443 5.38962 21.4935 5.24992C21.2428 5.11023 21.0035 4.99786 20.9617 5.00003C20.9199 5.00221 19.3179 5.81555 17.4018 6.80745ZM8.99815 11.1323L7.0036 12.1562V16.6499C7.0036 19.1214 7.02979 21.1435 7.06191 21.1435C7.09393 21.1435 8.07526 20.7208 9.24259 20.2041L11.365 19.2646V14.5279L12.4022 15.0895C13.2014 15.5219 14.0011 15.9533 14.8013 16.3839L16.1632 17.1167L16.7692 16.8444C17.1493 16.6733 17.5286 16.5006 17.9071 16.3262C18.1996 16.1908 18.9177 15.8694 19.5027 15.6118C20.0878 15.3541 20.6293 15.0949 20.7061 15.0359C20.8082 14.9574 19.5642 14.2743 16.1052 12.5089C13.4978 11.1783 11.2809 10.0938 11.1786 10.099C11.0764 10.1041 10.0952 10.5691 8.99815 11.1323ZM28.6279 11.4198C27.2695 12.0293 26.1571 12.5523 26.1559 12.5821C26.1547 12.6119 26.8951 13.0494 27.8013 13.5542C28.7074 14.0591 29.4488 14.4992 29.4488 14.5324C29.4488 14.5654 28.647 14.9516 27.667 15.3906C26.687 15.8295 24.2098 16.9413 22.1621 17.8613L15.3009 20.9435C13.575 21.7189 12.0192 22.4178 11.8437 22.4968C8.31839 24.0828 7.34942 24.5229 7.21635 24.5985C7.08254 24.6745 7.05223 25.1164 7.02842 27.3341L7 29.9792L8.78362 30.8824L10.5672 31.7855L13.0404 30.6762C14.4007 30.0662 15.5136 29.5351 15.5136 29.496C15.5136 29.4569 15.2623 29.2942 14.9552 29.1341C14.6479 28.974 14.0137 28.6196 13.5457 28.3464C13.0777 28.0732 12.611 27.8226 12.5085 27.7893C12.4061 27.7562 12.3238 27.6982 12.3255 27.6603C12.3272 27.6226 13.4163 27.1085 14.7455 26.5178C17.3273 25.3705 19.3032 24.4863 23.545 22.5799C25.4418 21.7276 27.3388 20.8759 29.2361 20.0246C30.9035 19.2766 32.8422 18.403 33.5443 18.0833L34.8208 17.502L34.8492 14.8268L34.8777 12.1518L33.0687 11.229C32.0736 10.7215 31.2232 10.3075 31.1786 10.309C31.134 10.3104 29.9862 10.8102 28.6279 11.4198ZM34.3361 21.0708C34.0695 21.2002 33.543 21.4425 33.166 21.6092C32.789 21.7759 32.0736 22.0967 31.5763 22.3222L30.6721 22.7321L30.6515 25.0806C30.6401 26.3723 30.5923 27.4234 30.5451 27.4166C30.4381 27.4008 28.7435 26.537 27.04 25.6299C25.8105 24.9752 25.7332 24.9492 25.4443 25.0914C25.2773 25.1736 24.279 25.6186 23.2259 26.0804C22.1727 26.542 21.2768 26.95 21.2346 26.9869C21.1926 27.0238 23.3121 28.1655 25.9448 29.5241L30.7314 31.9944L32.7762 30.9432C33.9006 30.3651 34.8568 29.8378 34.9009 29.7714C35 29.6223 34.9915 20.8151 34.8923 20.827C34.853 20.8317 34.6027 20.9414 34.3361 21.0708ZM23.0131 31.4083C22.6584 31.5598 22.3039 31.7116 21.9494 31.8636C20.8789 32.3238 21.0887 32.3391 19.8151 31.709C18.9669 31.2894 18.6013 31.1599 18.4426 31.2228C18.3235 31.2699 17.299 31.728 16.1657 32.2407C15.0325 32.7534 14.066 33.1729 14.0179 33.1729C13.5424 33.1729 14.3329 33.6423 17.3831 35.1714L20.9603 36.9646L22.4654 36.2261C23.2932 35.8199 24.9629 35.0066 26.1759 34.4187C27.3887 33.8306 28.3661 33.3343 28.3479 33.3156C28.3294 33.2969 27.3131 32.7782 26.0893 32.163L23.8641 31.0445L23.0131 31.4083Z" fill="white"/>
</svg>
